<svg width="19" height="17" viewBox="0 0 19 17" fill="none" xmlns="http://www.w3.org/2000/svg">
<path opacity="0.3" d="M0 1.97475C0 1.40235 0.203572 0.930123 0.6107 0.558081C1.01783 0.186021 1.54711 0 2.19852 0C2.83831 0 3.35593 0.183154 3.75144 0.549495C4.15857 0.927273 4.36214 1.41952 4.36214 2.02626C4.36214 2.57576 4.1644 3.03366 3.76889 3.4C3.36176 3.77778 2.82667 3.96667 2.16362 3.96667H2.14617C1.50639 3.96667 0.988758 3.77778 0.593251 3.4C0.197745 3.02222 0 2.54713 0 1.97475ZM0.226831 17V5.52929H4.10041V17H0.226831ZM6.24659 17H10.1202V10.5949C10.1202 10.1943 10.1667 9.88517 10.2598 9.66768C10.4226 9.27845 10.6698 8.94932 11.0013 8.6803C11.3328 8.41127 11.7487 8.27677 12.2489 8.27677C13.5517 8.27677 14.2031 9.14107 14.2031 10.8697V17H18.0767V10.4232C18.0767 8.72895 17.6696 7.44394 16.8553 6.56818C16.041 5.69242 14.9651 5.25455 13.6273 5.25455C12.1268 5.25455 10.9577 5.8899 10.1202 7.16061V7.19495H10.1027L10.1202 7.16061V5.52929H6.24659C6.26984 5.89562 6.28148 7.03467 6.28148 8.94646C6.28148 10.8582 6.26984 13.5427 6.24659 17Z" fill="white"/>
</svg>
