<svg width="30" height="30" viewBox="0 0 30 30" fill="none" xmlns="http://www.w3.org/2000/svg">
<rect x="-0.5" y="0.5" width="28.8929" height="29" rx="14.4464" transform="matrix(-1 0 0 1 28.8928 0)" stroke="#9C9C9C"/>
<path d="M12.2595 14.3736L16.379 10.2592C16.7251 9.9136 17.2873 9.9136 17.6333 10.2592C17.9793 10.6048 17.9793 11.1663 17.6333 11.5119L14.1409 15L17.6333 18.4881C17.9793 18.8337 17.9793 19.3952 17.6333 19.7408C17.4603 19.9136 17.2333 20 17.0062 20C16.7791 20 16.552 19.9136 16.379 19.7408L12.2595 15.6264C11.9135 15.2808 11.9135 14.7193 12.2595 14.3737L12.2595 14.3736Z" fill="#9C9C9C"/>
</svg>
