<svg width="18" height="17" viewBox="0 0 18 17" fill="none" xmlns="http://www.w3.org/2000/svg">
<path opacity="0.3" d="M0 1.97475C0 1.40235 0.196033 0.930123 0.588081 0.558081C0.98013 0.186021 1.48981 0 2.11709 0C2.73318 0 3.23164 0.183154 3.6125 0.549495C4.00455 0.927273 4.20058 1.41952 4.20058 2.02626C4.20058 2.57576 4.01016 3.03366 3.6293 3.4C3.23725 3.77778 2.72198 3.96667 2.08349 3.96667H2.06669C1.45059 3.96667 0.952137 3.77778 0.571279 3.4C0.190421 3.02222 0 2.54713 0 1.97475ZM0.21843 17V5.52929H3.94855V17H0.21843ZM6.01523 17H9.74535V10.5949C9.74535 10.1943 9.79016 9.88517 9.87976 9.66768C10.0366 9.27844 10.2746 8.94931 10.5939 8.6803C10.9131 8.41127 11.3136 8.27677 11.7952 8.27677C13.0498 8.27677 13.6771 9.14107 13.6771 10.8697V17H17.4072V10.4232C17.4072 8.72895 17.0152 7.44394 16.231 6.56818C15.4469 5.69242 14.4108 5.25455 13.1226 5.25455C11.6776 5.25455 10.5519 5.8899 9.74535 7.16061V7.19495H9.72854L9.74535 7.16061V5.52929H6.01523C6.03763 5.89562 6.04884 7.03467 6.04884 8.94646C6.04884 10.8582 6.03763 13.5427 6.01523 17Z" fill="white"/>
</svg>
